<svg width="142" height="25" viewBox="0 0 142 25" fill="none" xmlns="http://www.w3.org/2000/svg">
<path d="M5.17616 20V7.592H0.256156V3.2H15.7602V7.592H10.8402V20H5.17616ZM22.6868 20.24C21.1988 20.24 19.8788 19.952 18.7268 19.376C17.5908 18.784 16.6948 17.976 16.0388 16.952C15.3828 15.928 15.0548 14.752 15.0548 13.424C15.0548 12.096 15.3828 10.92 16.0388 9.896C16.6948 8.872 17.5908 8.072 18.7268 7.496C19.8788 6.92 21.1988 6.632 22.6868 6.632C24.1748 6.632 25.4948 6.92 26.6468 7.496C27.7988 8.072 28.6948 8.872 29.3348 9.896C29.9908 10.92 30.3188 12.096 30.3188 13.424C30.3188 14.752 29.9908 15.928 29.3348 16.952C28.6948 17.976 27.7988 18.784 26.6468 19.376C25.4948 19.952 24.1748 20.24 22.6868 20.24ZM22.6868 16.016C23.0868 16.016 23.4468 15.92 23.7668 15.728C24.0868 15.536 24.3428 15.248 24.5348 14.864C24.7268 14.464 24.8228 13.984 24.8228 13.424C24.8228 12.848 24.7268 12.376 24.5348 12.008C24.3428 11.624 24.0868 11.336 23.7668 11.144C23.4468 10.952 23.0868 10.856 22.6868 10.856C22.2868 10.856 21.9268 10.952 21.6068 11.144C21.2868 11.336 21.0308 11.624 20.8388 12.008C20.6468 12.376 20.5508 12.848 20.5508 13.424C20.5508 13.984 20.6468 14.464 20.8388 14.864C21.0308 15.248 21.2868 15.536 21.6068 15.728C21.9268 15.92 22.2868 16.016 22.6868 16.016ZM40.7764 20.24C39.6404 20.24 38.6964 20 37.9444 19.52C37.2084 19.024 36.6644 18.28 36.3124 17.288C35.9604 16.28 35.7844 15 35.7844 13.448C35.7844 11.864 35.9444 10.576 36.2644 9.584C36.6004 8.576 37.1364 7.832 37.8724 7.352C38.6084 6.872 39.5764 6.632 40.7764 6.632C41.9284 6.632 42.9844 6.912 43.9444 7.472C44.9044 8.016 45.6724 8.8 46.2484 9.824C46.8244 10.832 47.1124 12.04 47.1124 13.448C47.1124 14.856 46.8244 16.072 46.2484 17.096C45.6724 18.104 44.9044 18.88 43.9444 19.424C42.9844 19.968 41.9284 20.24 40.7764 20.24ZM32.0164 24.656V6.872H37.1764V8.648L37.2004 13.448L37.4404 18.248V24.656H32.0164ZM39.4804 16.016C39.8804 16.016 40.2404 15.92 40.5604 15.728C40.8804 15.536 41.1364 15.248 41.3284 14.864C41.5204 14.48 41.6164 14.008 41.6164 13.448C41.6164 12.872 41.5204 12.392 41.3284 12.008C41.1364 11.624 40.8804 11.336 40.5604 11.144C40.2404 10.952 39.8804 10.856 39.4804 10.856C39.0804 10.856 38.7204 10.952 38.4004 11.144C38.0804 11.336 37.8244 11.624 37.6324 12.008C37.4404 12.392 37.3444 12.872 37.3444 13.448C37.3444 14.008 37.4404 14.48 37.6324 14.864C37.8244 15.248 38.0804 15.536 38.4004 15.728C38.7204 15.92 39.0804 16.016 39.4804 16.016ZM54.2691 10.352H61.6611V14.624H54.2691V10.352ZM54.6531 20H48.9891V3.2H62.6451V7.472H54.6531V20ZM64.2664 20V6.872H69.6904V20H64.2664ZM66.9784 5.816C65.9864 5.816 65.1944 5.552 64.6024 5.024C64.0104 4.496 63.7144 3.84 63.7144 3.056C63.7144 2.272 64.0104 1.616 64.6024 1.088C65.1944 0.559999 65.9864 0.295999 66.9784 0.295999C67.9704 0.295999 68.7624 0.543999 69.3544 1.04C69.9464 1.536 70.2424 2.176 70.2424 2.96C70.2424 3.792 69.9464 4.48 69.3544 5.024C68.7624 5.552 67.9704 5.816 66.9784 5.816ZM78.4305 20.24C76.6225 20.24 75.2145 19.808 74.2065 18.944C73.1985 18.064 72.6945 16.72 72.6945 14.912V3.92H78.1185V14.864C78.1185 15.264 78.2225 15.576 78.4305 15.8C78.6545 16.024 78.9265 16.136 79.2465 16.136C79.7105 16.136 80.1185 16.016 80.4705 15.776L81.7665 19.544C81.3505 19.784 80.8465 19.96 80.2545 20.072C79.6785 20.184 79.0705 20.24 78.4305 20.24ZM70.8945 11.552V7.592H80.8065V11.552H70.8945ZM92.2536 6.632C93.2616 6.632 94.1736 6.84 94.9896 7.256C95.8056 7.656 96.4456 8.288 96.9096 9.152C97.3896 10.016 97.6296 11.136 97.6296 12.512V20H92.2056V13.448C92.2056 12.632 92.0616 12.056 91.7736 11.72C91.4856 11.368 91.0936 11.192 90.5976 11.192C90.2296 11.192 89.8856 11.28 89.5656 11.456C89.2616 11.616 89.0136 11.888 88.8216 12.272C88.6456 12.656 88.5576 13.176 88.5576 13.832V20H83.1336V6.872H88.2936V10.712L87.2616 9.608C87.7736 8.616 88.4616 7.872 89.3256 7.376C90.2056 6.88 91.1816 6.632 92.2536 6.632ZM107.468 20.24C105.868 20.24 104.468 19.944 103.268 19.352C102.084 18.76 101.164 17.952 100.508 16.928C99.8515 15.888 99.5235 14.72 99.5235 13.424C99.5235 12.096 99.8435 10.92 100.484 9.896C101.14 8.872 102.028 8.072 103.148 7.496C104.284 6.92 105.556 6.632 106.964 6.632C108.26 6.632 109.452 6.888 110.54 7.4C111.644 7.912 112.524 8.672 113.18 9.68C113.852 10.688 114.188 11.936 114.188 13.424C114.188 13.616 114.18 13.832 114.164 14.072C114.148 14.296 114.132 14.504 114.116 14.696H104.012V12.08H111.236L109.196 12.776C109.196 12.264 109.1 11.832 108.908 11.48C108.732 11.112 108.484 10.832 108.164 10.64C107.844 10.432 107.46 10.328 107.012 10.328C106.564 10.328 106.172 10.432 105.836 10.64C105.516 10.832 105.268 11.112 105.092 11.48C104.916 11.832 104.828 12.264 104.828 12.776V13.592C104.828 14.152 104.94 14.632 105.164 15.032C105.388 15.432 105.708 15.736 106.124 15.944C106.54 16.136 107.044 16.232 107.636 16.232C108.244 16.232 108.74 16.152 109.124 15.992C109.524 15.832 109.94 15.592 110.372 15.272L113.204 18.128C112.564 18.816 111.772 19.344 110.828 19.712C109.9 20.064 108.78 20.24 107.468 20.24ZM121.035 20.24C119.915 20.24 118.811 20.12 117.723 19.88C116.635 19.64 115.755 19.328 115.083 18.944L116.571 15.368C117.195 15.736 117.915 16.024 118.731 16.232C119.563 16.44 120.371 16.544 121.155 16.544C121.811 16.544 122.251 16.488 122.475 16.376C122.715 16.264 122.835 16.112 122.835 15.92C122.835 15.728 122.699 15.592 122.427 15.512C122.155 15.416 121.795 15.344 121.347 15.296C120.899 15.248 120.403 15.192 119.859 15.128C119.331 15.048 118.795 14.936 118.251 14.792C117.707 14.648 117.211 14.432 116.763 14.144C116.315 13.856 115.955 13.472 115.683 12.992C115.411 12.496 115.275 11.872 115.275 11.12C115.275 10.288 115.523 9.536 116.019 8.864C116.531 8.192 117.283 7.656 118.275 7.256C119.283 6.84 120.523 6.632 121.995 6.632C122.955 6.632 123.915 6.72 124.875 6.896C125.835 7.072 126.659 7.344 127.347 7.712L125.859 11.288C125.187 10.92 124.523 10.672 123.867 10.544C123.227 10.4 122.627 10.328 122.067 10.328C121.379 10.328 120.907 10.392 120.651 10.52C120.411 10.648 120.291 10.792 120.291 10.952C120.291 11.144 120.427 11.288 120.699 11.384C120.971 11.48 121.331 11.552 121.779 11.6C122.227 11.648 122.715 11.712 123.243 11.792C123.787 11.856 124.323 11.968 124.851 12.128C125.395 12.272 125.891 12.488 126.339 12.776C126.787 13.064 127.147 13.456 127.419 13.952C127.691 14.432 127.827 15.048 127.827 15.8C127.827 16.584 127.579 17.32 127.083 18.008C126.587 18.68 125.835 19.224 124.827 19.64C123.819 20.04 122.555 20.24 121.035 20.24ZM134.606 20.24C133.486 20.24 132.382 20.12 131.294 19.88C130.206 19.64 129.326 19.328 128.654 18.944L130.142 15.368C130.766 15.736 131.486 16.024 132.302 16.232C133.134 16.44 133.942 16.544 134.726 16.544C135.382 16.544 135.822 16.488 136.046 16.376C136.286 16.264 136.406 16.112 136.406 15.92C136.406 15.728 136.27 15.592 135.998 15.512C135.726 15.416 135.366 15.344 134.918 15.296C134.47 15.248 133.974 15.192 133.43 15.128C132.902 15.048 132.366 14.936 131.822 14.792C131.278 14.648 130.782 14.432 130.334 14.144C129.886 13.856 129.526 13.472 129.254 12.992C128.982 12.496 128.846 11.872 128.846 11.12C128.846 10.288 129.094 9.536 129.59 8.864C130.102 8.192 130.854 7.656 131.846 7.256C132.854 6.84 134.094 6.632 135.566 6.632C136.526 6.632 137.486 6.72 138.446 6.896C139.406 7.072 140.23 7.344 140.918 7.712L139.43 11.288C138.758 10.92 138.094 10.672 137.438 10.544C136.798 10.4 136.198 10.328 135.638 10.328C134.95 10.328 134.478 10.392 134.222 10.52C133.982 10.648 133.862 10.792 133.862 10.952C133.862 11.144 133.998 11.288 134.27 11.384C134.542 11.48 134.902 11.552 135.35 11.6C135.798 11.648 136.286 11.712 136.814 11.792C137.358 11.856 137.894 11.968 138.422 12.128C138.966 12.272 139.462 12.488 139.91 12.776C140.358 13.064 140.718 13.456 140.99 13.952C141.262 14.432 141.398 15.048 141.398 15.8C141.398 16.584 141.15 17.32 140.654 18.008C140.158 18.68 139.406 19.224 138.398 19.64C137.39 20.04 136.126 20.24 134.606 20.24Z" fill="#FFB703"/>
</svg>
